<?xml version="1.0" encoding="utf-8"?>
<!-- Generator: Adobe Illustrator 26.3.1, SVG Export Plug-In . SVG Version: 6.00 Build 0)  -->
<svg version="1.1" id="Layer_1" xmlns="http://www.w3.org/2000/svg" xmlns:xlink="http://www.w3.org/1999/xlink" x="0px" y="0px"
	 viewBox="0 0 165.5 87.7" style="enable-background:new 0 0 165.5 87.7;" xml:space="preserve">
<style type="text/css">
	.st0{fill:#FFFFFF;}
	.st1{fill:#F4F5F5;}
</style>
<g id="Group_14" transform="translate(-431.35 -2752.991)">
	<g id="Group_1" transform="translate(431.35 2752.991)">
		<path id="Path_4" class="st0" d="M101,4.4v20.4h-4.8V4.4h-3.5V0h11.6v4.4H101z"/>
		<path id="Path_5" class="st0" d="M105.8,24.8V0h4.8v24.8H105.8z"/>
		<path id="Path_6" class="st0" d="M120.1,4.4v20.4h-4.8V4.4h-3.5V0h11.6v4.4H120.1z"/>
		<path id="Path_7" class="st0" d="M124.8,24.8V0h4.8v20.5h5.1v4.3H124.8z"/>
		<path id="Path_8" class="st0" d="M135.9,24.8V0H146v4.2h-5.4v6h3.5V14h-3.5v6.4h5.4v4.4H135.9z"/>
	</g>
	<g id="Group_2" transform="translate(431.35 2783.991)">
		<path id="Path_9" class="st0" d="M101.9,12.6c1.5-0.5,2.5-1.9,2.3-3.5V4.4c-0.2-2.3-2.2-4.1-4.5-4h-6.8v24.7h7.4
			c2.4-0.2,4.1-2.3,4-4.6v-4.5C104.2,14.4,103.3,13.1,101.9,12.6z M99.6,20.1c0,0.8-0.4,1.1-0.9,1.1h-1.2v-6.7h1.2
			c0.5,0,0.9,0.3,0.9,1.1L99.6,20.1z M99.6,9.8c0,0.8-0.3,1.1-0.9,1.1h-1.2V4.5h1.2c0.5,0,0.9,0.3,0.9,1.1L99.6,9.8z"/>
		<path id="Path_10" class="st0" d="M117.8,5.3c-0.2-3.1-2.8-5.5-5.9-5.3c0,0,0,0,0,0c-3.4,0-6,2.3-6,5.6v14.5
			c0.2,3.1,2.9,5.6,6,5.4h0.3c3.1,0,5.6-2.5,5.6-5.5c0-0.1,0-0.1,0-0.2L117.8,5.3L117.8,5.3z M112.9,20.2v0.1c0,0.6-0.5,1-1.1,1
			h-0.1c-0.6,0-1.1-0.5-1.1-1.1V5.2c0.1-0.6,0.6-1,1.2-1h0.1c0.6,0,1,0.5,1,1c0,0,0,0,0,0L112.9,20.2z"/>
		<path id="Path_11" class="st0" d="M126.4,25.2l-1.7-7.8l-2,7.7h-4.5l3.8-12.2l-3.5-12.5h4.8l1.6,8.2l2-8.2h4.5l-3.8,11.9l3.7,12.9
			H126.4z"/>
		<path id="Path_12" class="st0" d="M132.5,25.2V0.4h4.8v24.7L132.5,25.2z"/>
		<path id="Path_13" class="st0" d="M147.9,25.2L144.7,15l-1.1-3.5v13.6h-4.2V0.4h4.4l2.9,10.2l1,3.5V0.4h4.1v24.7L147.9,25.2z"/>
		<path id="Path_14" class="st0" d="M163,25.2l-0.5-1.7c-0.7,1.3-2,2.1-3.5,2.2c-2.9,0.1-5.3-2.2-5.3-5c0-0.2,0-0.3,0-0.5V5.5
			c0.1-3.1,2.6-5.6,5.8-5.5c0,0,0,0,0.1,0h0.1c3.1-0.1,5.7,2.3,5.8,5.3v4.2h-4.5V5.4c0-0.7-0.6-1.3-1.3-1.3s-1.3,0.6-1.3,1.3l0,0
			v14.8c0.1,0.7,0.7,1.2,1.4,1.2c0.6-0.1,1.1-0.6,1.2-1.2v-4.1h-1.3v-3.4h5.8v12.2L163,25.2L163,25.2z"/>
	</g>
	<g id="Group_3" transform="translate(431.35 2815.897)">
		<path id="Path_15" class="st0" d="M98.8,24.8c-3.2,0.1-5.8-2.3-6-5.4V5.7c0-3.2,2.6-5.7,5.7-5.7h0.3c2.8-0.1,5.2,2.1,5.3,5
			c0,0.2,0,0.4,0,0.6v3.6h-4V5.4c-0.1-0.7-0.7-1.2-1.4-1.1c0,0,0,0,0,0c-0.6,0-1.1,0.5-1.1,1.1v13.9c0.1,0.7,0.7,1.2,1.4,1.1
			c0,0,0,0,0,0c0.6,0,1.1-0.5,1.1-1.1v-3.7h4v3.6C104,22.6,102,24.8,98.8,24.8z"/>
		<path id="Path_16" class="st0" d="M105.7,24.4V0.5h4.6v19.8h4.9v4.1L105.7,24.4z"/>
		<path id="Path_17" class="st0" d="M121.9,24.8c-3,0.1-5.5-2.2-5.6-5.2c0,0,0,0,0,0V0.5h4.6v19.1c-0.1,0.5,0.3,1,0.8,1c0,0,0,0,0,0
			h0.2c0.5,0.1,1-0.3,1.1-0.9V0.5h4.5v19c0,2.9-2.3,5.3-5.2,5.3H121.9z"/>
		<path id="Path_18" class="st0" d="M138.1,12.2c1.4-0.5,2.3-1.9,2.2-3.3V4.2c-0.2-2.3-2.1-4-4.4-3.8h-6.6v23.8h7.2
			c2.2-0.2,3.9-2.2,3.7-4.4c0,0,0,0,0-0.1v-4.4C140.4,13.9,139.5,12.6,138.1,12.2z M136,19.4c0,0.8-0.3,1-0.9,1h-1V14h1.1
			c0.5,0,0.9,0.3,0.9,1L136,19.4L136,19.4z M136,9.5c0,0.8-0.3,1-0.9,1h-1V4.3h1.1c0.5,0,0.9,0.3,0.9,1L136,9.5L136,9.5z"/>
	</g>
</g>
<path class="st1" d="M0.7-2.4"/>
<path id="Subtraction_8" class="st0" d="M38.7,87.2L38.7,87.2L19.8,43.9L0.8,0.5h75.8L57.7,43.9L38.7,87.2L38.7,87.2z M30.6,23.5
	v44.8H47V23.5h8.7V6.6H21.9v16.9L30.6,23.5z"/>
</svg>
